<?xml version="1.0" encoding="UTF-8"?>
<svg id="Layer_1" xmlns="http://www.w3.org/2000/svg" version="1.1" viewBox="0 0 128 128">
  <!-- Generator: Adobe Illustrator 29.5.1, SVG Export Plug-In . SVG Version: 2.1.0 Build 141)  -->
  <defs>
    <style>
      .st0 {
        fill: #e3e7ea;
      }
    </style>
  </defs>
  <path class="st0" d="M68.1,28.8c-1.7,0-3.4.1-5,.3-4.1-6.9-11.7-11.5-20.3-11.5-13,0-23.7,10.6-23.7,23.7s3.7,14.5,9.3,18.8c-.7,3-1.1,6.1-1.1,9.4,0,22.5,18.3,40.7,40.7,40.7s40.7-18.3,40.7-40.7-18.3-40.7-40.7-40.7ZM55.1,43.1c-.8,5.9-5.8,10.5-11.9,10.7,2.9-4.6,7-8.3,11.9-10.7ZM30.4,41.4c0-6.9,5.6-12.4,12.4-12.4s6.4,1.3,8.6,3.5c-7.7,3.5-14.2,9.3-18.4,16.5-1.6-2.1-2.6-4.7-2.6-7.6ZM68.1,99.1c-16.3,0-29.5-13.2-29.5-29.5s.1-3.3.4-4.8c1.2.2,2.5.3,3.8.3,13,0,23.7-10.6,23.7-23.7s0-.8,0-1.3c.6,0,1.1,0,1.7,0,16.3,0,29.5,13.2,29.5,29.5s-13.2,29.5-29.5,29.5Z"/>
</svg>